<svg xmlns="http://www.w3.org/2000/svg" height="25" viewBox="0 96 960 960" width="25"><path d="M299.461 893.18q-23.328 0-40.19-16.862-16.861-16.861-16.861-40.189V327.615h-39.872v-32.197h154.129v-27.367h246.949v27.128h154.128v32.436h-39.872v508.692q0 23.408-16.732 40.14-16.733 16.733-40.319 16.733h-361.36Zm385.975-565.565h-410.59v508.514q0 10.769 7.179 17.692 7.18 6.923 17.436 6.923h361.36q9.231 0 16.923-7.692 7.692-7.693 7.692-16.923V327.615ZM395.82 778.859h32.436V408.115H395.82v370.744Zm136.206 0h32.436V408.115h-32.436v370.744Zm-257.18-451.244v533.129-533.129Z"/></svg>