<svg xmlns="http://www.w3.org/2000/svg" height="25" viewBox="0 96 960 960" width="25"><path d="M718.462 889.385 512.885 683.423l41.231-41.231 205.577 205.962-41.231 41.231Zm-518.923 0-41.232-41.231 259.847-259.846-99.539-99.539L297.385 510l-37.308-38.577v71.385l-21.231 21.731-102.5-102.885 21.346-21.231h71.385l-38.462-37.192 83.539-83.539q13.231-13.231 29.327-19.923 16.096-6.692 34.212-6.692 18.115 0 34.211 6.692t29.327 19.923l-63.385 63.385 43.231 43.23-21.231 21.231 99.539 99.539 109.538-109.539q-9.385-13.192-12.788-26.923-3.404-13.731-3.404-30.73 0-47.885 33.404-81.481 33.404-33.597 81.673-33.597 9.885 0 19.288 1.654 9.404 1.654 18.558 5.731l-82.115 82.116 69.846 69.846 82.115-82.116q4.193 9.154 5.789 18.558t1.596 19.289q0 48.269-33.596 81.673t-81.481 33.404q-17 0-30.731-3.289-13.731-3.288-26.923-12.904L199.539 889.385Z"/></svg>